<?xml version="1.0" standalone="no"?>
<!DOCTYPE svg PUBLIC "-//W3C//DTD SVG 20010904//EN"
 "http://www.w3.org/TR/2001/REC-SVG-20010904/DTD/svg10.dtd">
<svg version="1.0" xmlns="http://www.w3.org/2000/svg"
 width="1280.000000pt" height="904.000000pt" viewBox="0 0 1280.000000 904.000000"
 preserveAspectRatio="xMidYMid meet">

<g transform="translate(0.000000,904.000000) scale(0.100000,-0.100000)"
fill="#000000" stroke="none">
<path d="M0 4520 l0 -4520 2934 0 2934 0 -9 38 c-4 20 -4 38 0 40 5 2 5 20 0
40 -4 20 -4 38 0 40 5 2 5 19 0 39 -4 21 -4 44 2 54 12 23 12 25 -6 43 -14 14
-14 18 0 40 13 19 14 29 5 45 -8 15 -8 27 0 41 8 14 8 26 0 40 -8 14 -8 26 0
40 8 14 8 26 0 40 -8 14 -8 26 0 40 8 14 8 26 0 40 -8 14 -8 26 0 40 8 14 8
26 0 40 -8 14 -8 26 0 40 8 14 8 26 0 40 -8 14 -8 26 0 40 8 14 8 26 0 40 -8
14 -8 26 0 40 8 14 8 26 0 40 -8 14 -8 26 0 40 8 14 8 26 0 40 -8 14 -8 26 0
40 8 14 8 26 0 40 -8 14 -8 26 0 40 8 14 8 26 0 40 -8 14 -8 26 0 40 8 14 8
26 0 40 -8 14 -8 26 0 40 8 14 8 26 0 40 -8 14 -8 26 0 41 9 16 8 26 -5 45
-14 22 -14 26 0 40 18 18 18 20 6 43 -6 10 -6 33 -2 54 5 20 5 37 0 39 -4 2
-4 20 0 40 5 20 5 38 0 40 -4 2 -4 20 0 40 5 20 5 38 0 40 -4 2 -4 20 0 41 6
24 5 37 -1 37 -6 0 -7 8 -3 17 4 10 7 26 7 35 0 10 9 25 21 34 14 10 16 14 5
11 -22 -8 -90 12 -83 24 4 5 16 9 28 8 21 0 21 -1 2 -8 -13 -5 5 -8 48 -8 38
0 73 -5 80 -12 6 -6 20 -11 30 -11 14 0 17 -5 12 -17 -5 -15 -4 -16 6 -5 16
15 33 16 24 1 -4 -6 -1 -10 6 -8 29 3 41 -2 36 -15 -4 -10 0 -14 14 -11 11 2
50 -17 95 -48 205 -141 293 -182 464 -219 85 -18 117 -19 305 -14 137 5 238 3
290 -4 436 -62 794 -411 870 -849 40 -227 -4 -484 -115 -674 l-39 -67 2420 0
2419 0 0 4520 0 4520 -6400 0 -6400 0 0 -4520z m1356 3861 c0 -11 -5 -17 -13
-14 -10 4 -11 9 -2 19 15 18 15 18 15 -5z m-46 -51 c0 -5 -7 -7 -15 -4 -8 4
-15 1 -15 -7 0 -7 -3 -10 -6 -6 -9 9 5 27 22 27 8 0 14 -4 14 -10z m-80 -35
c-7 -9 -10 -19 -6 -23 4 -4 14 2 23 13 15 19 15 19 8 -4 -6 -20 -4 -23 9 -18
9 4 16 2 16 -3 0 -6 -5 -10 -11 -10 -5 0 -8 -4 -5 -8 2 -4 -9 -14 -25 -21 -17
-8 -29 -20 -29 -32 0 -11 -7 -19 -17 -19 -9 0 -13 -3 -10 -7 4 -3 -2 -13 -13
-20 -26 -18 -18 -32 18 -31 31 1 72 -18 72 -33 0 -5 -11 -15 -25 -21 -32 -15
-32 -23 4 -38 29 -12 29 -12 9 -32 -12 -12 -17 -26 -12 -36 9 -22 9 -42 0 -64
-5 -10 0 -24 12 -36 20 -20 20 -20 -9 -32 -37 -16 -37 -24 1 -40 17 -7 30 -16
30 -20 0 -4 -13 -13 -30 -20 -16 -7 -30 -16 -30 -20 0 -4 14 -13 30 -20 17 -7
30 -16 30 -20 0 -4 -13 -13 -30 -20 -38 -16 -38 -23 3 -43 22 -11 26 -16 13
-16 -16 -1 -18 -7 -14 -53 3 -29 1 -63 -5 -76 -8 -18 -8 -25 3 -32 11 -7 12
-14 2 -35 -16 -34 -15 -45 3 -45 22 0 18 -27 -5 -40 -11 -6 -20 -17 -20 -25 0
-8 9 -15 20 -15 11 0 20 -7 20 -15 0 -8 -9 -19 -20 -25 -11 -6 -20 -17 -20
-25 0 -8 9 -15 20 -15 11 0 20 -7 20 -15 0 -8 -9 -19 -20 -25 -11 -6 -20 -17
-20 -25 0 -8 9 -15 20 -15 11 0 20 -7 20 -15 0 -8 -9 -19 -20 -25 -11 -6 -20
-17 -20 -25 0 -8 9 -15 20 -15 25 0 25 -11 0 -40 -25 -29 -25 -40 0 -40 11 0
20 -7 20 -15 0 -8 -9 -19 -20 -25 -23 -13 -27 -40 -5 -40 8 0 15 -9 15 -20 0
-11 -4 -20 -10 -20 -5 0 -10 -9 -10 -19 0 -11 -5 -21 -12 -23 -6 -2 3 -10 20
-17 40 -17 40 -25 2 -41 -38 -16 -38 -24 0 -40 38 -16 38 -24 0 -40 -16 -7
-30 -16 -30 -20 0 -4 14 -13 30 -20 38 -16 38 -24 1 -40 -29 -12 -29 -12 -10
-31 24 -24 24 -34 0 -58 -19 -19 -19 -19 10 -31 37 -16 37 -24 -1 -40 -16 -7
-30 -16 -30 -20 0 -4 14 -13 30 -20 17 -7 30 -16 30 -20 0 -5 -20 -16 -44 -26
-77 -32 -41 -64 86 -77 34 -3 46 -1 41 7 -4 6 6 -1 21 -16 16 -15 32 -25 37
-22 5 3 8 2 7 -3 -1 -4 4 -19 12 -33 9 -16 16 -65 18 -137 l4 -113 -128 -1
c-71 -1 -121 -3 -110 -6 17 -4 16 -6 -5 -17 -27 -15 -39 -11 -39 10 0 8 5 12
10 9 6 -3 10 -1 10 4 0 6 -4 11 -10 11 -5 0 -10 7 -10 16 0 8 5 12 10 9 13 -8
13 6 0 39 -5 14 -6 26 -1 26 5 0 9 46 9 103 0 56 2 108 4 116 1 8 -5 17 -14
19 -17 3 -18 -11 -18 -186 0 -164 2 -191 17 -203 24 -20 230 -20 243 0 5 10
10 -18 12 -76 2 -50 1 -90 -2 -88 -3 2 -60 0 -125 -4 -125 -7 -198 0 -250 25
l-30 15 25 -20 c23 -19 42 -26 63 -22 5 1 5 -3 2 -9 -4 -6 -13 -9 -21 -6 -22
8 -17 -2 7 -15 12 -6 19 -7 15 -1 -9 15 39 23 69 12 33 -13 48 -13 40 0 -3 6
1 10 9 10 9 0 16 -7 16 -15 0 -8 -7 -15 -15 -15 -20 0 -19 -13 5 -40 25 -29
25 -40 0 -40 -26 0 -26 -26 0 -40 11 -6 20 -17 20 -25 0 -8 -9 -15 -20 -15
-26 0 -26 -26 0 -40 26 -14 26 -40 0 -40 -26 0 -26 -26 0 -40 26 -14 26 -40 0
-40 -26 0 -26 -26 0 -40 23 -13 27 -40 5 -40 -18 0 -19 -11 -3 -45 10 -21 9
-28 -2 -35 -11 -7 -12 -14 -2 -34 8 -17 8 -42 2 -82 -8 -48 -7 -61 9 -83 30
-44 31 -48 14 -62 -12 -10 -14 -10 -9 -1 4 6 3 12 -2 12 -14 0 -56 39 -49 46
3 3 15 -4 26 -15 14 -14 21 -17 21 -7 0 21 -27 39 -50 33 -14 -4 -29 6 -52 32
-58 66 -68 81 -68 99 0 13 -2 14 -9 4 -6 -10 -10 -10 -21 3 -7 8 -9 15 -6 15
4 0 1 6 -6 14 -7 8 -16 12 -20 9 -5 -2 -8 1 -8 6 0 6 -18 30 -40 52 -32 33
-38 45 -29 56 10 11 8 12 -6 7 -15 -6 -17 -3 -13 14 4 13 2 19 -6 16 -9 -3
-58 58 -61 76 -1 3 -18 31 -38 63 -21 31 -35 63 -31 69 5 7 3 8 -6 3 -10 -6
-12 -4 -7 9 4 10 3 15 -3 11 -6 -3 -10 -1 -10 4 0 22 -2 26 -15 41 -21 24 -45
77 -38 84 4 3 1 6 -6 6 -7 0 -10 4 -6 9 3 6 -31 67 -75 136 l-80 127 0 116
c-1 64 -8 162 -16 217 -27 176 -29 426 -5 611 11 89 28 188 36 220 9 33 18 70
21 84 9 41 81 250 112 323 15 37 32 64 37 60 4 -5 5 -3 1 4 -7 12 29 93 46
104 5 3 10 10 10 15 1 18 31 73 38 69 4 -2 17 20 29 50 12 29 29 56 37 59 8 3
14 13 14 21 0 9 5 13 10 10 6 -3 10 -1 10 5 0 6 4 9 9 6 5 -4 7 3 4 14 -3 12
0 20 6 20 7 0 10 4 7 8 -6 10 60 72 68 65 2 -2 7 1 12 8 4 8 3 10 -4 5 -20
-12 -13 4 11 27 14 14 15 16 3 7 -11 -8 -2 6 19 33 22 26 41 47 43 47 3 0 0
-6 -6 -12 -7 -9 -6 -17 4 -26 14 -13 19 -5 15 21 0 4 5 7 11 7 9 0 8 4 -2 10
-8 5 -10 10 -4 10 7 0 14 9 17 20 3 11 11 20 17 20 10 0 10 -4 0 -15 -19 -23
-8 -26 19 -4 13 10 19 19 13 19 -6 0 -9 7 -8 15 3 21 13 28 22 14 5 -8 3 -10
-6 -4 -9 5 -11 4 -6 -4 11 -17 26 -3 26 23 0 12 5 27 12 34 17 17 24 6 8 -13z
m40 -134 c0 -5 -7 -11 -14 -14 -10 -4 -13 -1 -9 9 6 15 23 19 23 5z m7268
-397 c20 -8 56 -17 80 -19 24 -2 57 -12 75 -23 28 -16 36 -17 62 -6 70 30 171
9 220 -46 11 -12 43 -37 71 -55 32 -20 57 -46 68 -69 17 -36 19 -37 60 -31 81
13 189 -40 222 -108 11 -22 32 -40 66 -56 56 -26 95 -78 129 -172 17 -46 26
-57 54 -68 50 -18 78 -63 83 -133 3 -36 9 -58 16 -58 16 0 73 -56 81 -78 3 -9
18 -25 35 -34 51 -29 71 -73 70 -153 -1 -68 17 -165 32 -165 4 0 0 -12 -8 -27
-20 -39 -18 -51 15 -88 38 -43 47 -97 26 -158 -14 -43 -14 -51 1 -97 14 -42
14 -57 4 -93 -14 -46 -14 -69 -4 -135 8 -53 0 -83 -30 -119 -15 -17 -26 -48
-31 -81 -5 -38 -17 -66 -41 -98 -19 -24 -39 -65 -44 -90 -14 -62 -36 -103 -77
-140 l-34 -31 21 -35 c11 -19 38 -54 60 -77 22 -23 52 -65 67 -94 24 -45 27
-64 28 -142 0 -49 -4 -106 -8 -125 -8 -34 -7 -36 28 -49 50 -18 100 -64 118
-109 8 -20 27 -107 41 -192 46 -266 45 -262 222 -586 141 -258 154 -292 154
-412 0 -199 -87 -426 -239 -626 -65 -85 -215 -239 -319 -326 -82 -69 -90 -79
-97 -120 -22 -143 -98 -180 -445 -219 -301 -34 -531 -45 -950 -45 -420 0 -641
11 -941 44 -343 39 -424 78 -444 212 -7 44 -13 52 -100 127 -129 112 -290 283
-353 375 -138 199 -226 466 -209 633 6 60 84 226 232 497 93 171 107 212 140
407 14 85 32 177 40 206 18 61 60 107 123 134 30 13 42 24 39 33 -3 8 -11 42
-17 76 -20 111 12 207 103 310 29 32 62 75 74 95 23 36 23 37 5 97 -12 42 -25
66 -45 80 -37 27 -57 68 -57 121 0 34 -6 49 -25 67 -14 13 -31 42 -37 64 -7
23 -22 57 -34 76 -13 19 -27 53 -33 75 -5 22 -17 60 -26 85 -13 36 -15 52 -6
82 7 20 16 40 20 43 5 3 2 23 -6 44 -23 60 -11 107 43 158 24 24 44 51 44 60
-1 10 -15 27 -33 38 -48 30 -77 80 -77 132 0 54 24 109 56 130 13 8 24 23 24
32 0 10 7 26 15 37 9 12 14 43 15 82 0 71 24 129 63 155 16 10 26 29 30 55 8
48 43 101 84 127 29 18 32 25 33 68 0 102 63 165 173 174 54 5 67 11 104 44
24 22 47 39 53 39 5 0 18 17 27 37 25 53 74 83 135 83 38 0 57 6 84 27 45 34
123 42 178 19 57 -24 71 -20 120 28 55 56 129 75 216 57 51 -10 59 -9 104 14
58 29 128 33 184 9z m-8040 -1681 l2 -353 -105 0 -105 0 0 355 0 356 103 -3
102 -3 3 -352z m1272 2 l0 -355 -110 0 -110 0 0 355 0 355 110 0 110 0 0 -355z
m265 326 c86 -39 104 -84 112 -281 6 -148 -7 -266 -35 -315 -29 -50 -101 -79
-208 -83 l-92 -4 -4 81 -3 81 30 0 c88 0 98 21 93 209 -4 164 -7 171 -86 174
-32 1 -47 6 -41 12 5 5 9 42 9 83 l0 75 92 -7 c54 -4 109 -15 133 -25z m1565
-326 l0 -355 -105 0 -105 0 0 355 0 355 105 0 105 0 0 -355z m280 275 l0 -80
-120 0 -120 0 0 80 0 80 120 0 120 0 0 -80z m-2567 -47 c-7 -2 -13 -14 -13
-26 0 -16 -3 -18 -12 -9 -13 13 6 43 26 41 7 0 6 -2 -1 -6z m27 -13 c-8 -5
-19 -10 -25 -10 -5 0 -3 5 5 10 8 5 20 10 25 10 6 0 3 -5 -5 -10z m-75 -10 c4
-6 -5 -10 -19 -10 -14 0 -26 5 -26 10 0 6 9 10 19 10 11 0 23 -4 26 -10z
m1165 -214 c0 -148 3 -186 15 -196 10 -8 51 -11 135 -8 l121 3 -3 -70 -3 -70
-45 -8 c-25 -4 -99 -6 -165 -5 -224 7 -265 58 -253 322 4 83 9 110 27 139 25
40 91 77 139 77 l32 0 0 -184z m207 165 c60 -28 76 -64 81 -188 l4 -103 -131
0 -132 0 3 48 c3 45 4 47 36 50 27 3 32 7 32 31 0 33 -16 51 -47 51 -22 0 -23
4 -23 65 l0 65 68 0 c44 0 81 -7 109 -19z m362 -98 c17 -65 49 -183 71 -263
22 -80 40 -146 40 -147 0 -2 -42 -3 -94 -3 -81 0 -94 2 -99 18 -26 91 -119
408 -131 447 -9 28 -16 53 -16 58 0 4 44 7 99 7 l98 0 32 -117z m321 115 c0
-6 -30 -109 -55 -193 -15 -49 -42 -144 -61 -209 -18 -66 -36 -122 -39 -125
-10 -10 -23 20 -44 103 -11 45 -27 101 -34 126 -13 41 -12 56 11 160 13 63 26
121 28 128 2 8 31 12 99 12 52 0 95 -1 95 -2z m842 -190 l3 -193 33 -3 32 -3
0 -76 0 -76 -80 6 c-87 6 -129 24 -164 70 -19 26 -21 41 -21 195 0 157 1 169
23 204 24 39 79 66 139 67 l33 1 2 -192z m218 169 c67 -32 75 -60 75 -249 0
-154 -2 -169 -21 -195 -30 -39 -72 -62 -124 -65 l-45 -3 -5 190 -5 190 -30 5
c-30 5 -30 6 -33 79 l-3 73 78 -4 c46 -2 92 -11 113 -21z m378 -244 l2 -263
-100 0 -100 0 0 258 c0 142 3 262 7 266 4 4 48 5 98 4 l90 -3 3 -262z m162
183 l0 -84 -47 -7 c-27 -4 -56 -11 -65 -16 -17 -9 -18 -3 -18 74 l0 85 33 16
c17 8 47 16 65 16 l32 0 0 -84z m268 -95 c3 -179 7 -201 43 -201 17 0 19 -8
19 -66 0 -65 0 -65 -35 -80 -76 -31 -163 -7 -199 55 -18 31 -20 58 -24 237 -3
112 -2 210 2 219 5 13 21 15 98 13 l93 -3 3 -174z m300 -88 l2 -263 -100 0
-100 0 0 258 c0 142 3 262 7 266 4 4 48 5 98 4 l90 -3 3 -262z m302 2 l0 -265
-95 0 -95 0 0 265 0 265 95 0 95 0 0 -265z m229 249 c46 -33 54 -73 59 -301
l4 -213 -101 0 -101 0 -2 183 c-3 181 -3 182 -26 185 -22 3 -23 7 -20 70 3 59
6 68 28 79 36 18 131 16 159 -3z m292 -9 c44 -40 49 -71 49 -295 l0 -210 -95
0 -95 0 0 169 c0 93 -3 176 -6 185 -3 9 -15 16 -25 16 -12 0 -21 9 -24 28 -3
15 -10 41 -14 59 -10 35 -4 44 40 62 40 17 144 8 170 -14z m-5134 -52 c-2 -16
-4 -5 -4 22 0 28 2 40 4 28 2 -13 2 -35 0 -50z m2671 -115 l3 -78 -106 0 -105
0 0 80 0 81 103 -3 102 -3 3 -77z m-2671 0 c-3 -8 -6 -5 -6 6 -1 11 2 17 5 13
3 -3 4 -12 1 -19z m308 -98 c-3 -5 -11 -10 -16 -10 -6 0 -7 5 -4 10 3 6 11 10
16 10 6 0 7 -4 4 -10z m4 -33 c8 -10 7 -14 -4 -14 -8 0 -12 4 -9 8 2 4 -2 10
-8 12 -8 4 -9 6 -2 6 6 1 17 -5 23 -12z m-185 -27 c10 0 17 -3 13 -6 -10 -10
-57 5 -57 18 0 9 3 9 12 0 7 -7 21 -12 32 -12z m-69 -10 c4 -6 -5 -10 -20 -10
-15 0 -24 4 -20 10 3 6 12 10 20 10 8 0 17 -4 20 -10z m190 -190 c3 -5 1 -10
-4 -10 -6 0 -11 5 -11 10 0 6 2 10 4 10 3 0 8 -4 11 -10z m-60 -10 c-3 -5 -12
-10 -18 -10 -7 0 -6 4 3 10 19 12 23 12 15 0z m-98 -666 c-3 -3 -12 -4 -19 -1
-8 3 -5 6 6 6 11 1 17 -2 13 -5z m53 -89 c-7 -8 -20 -15 -29 -15 -11 1 -8 5 9
15 32 18 35 18 20 0z m31 -12 c-12 -20 -14 -14 -5 12 4 9 9 14 11 11 3 -2 0
-13 -6 -23z m-56 -31 c-3 -3 -11 0 -18 7 -9 10 -8 11 6 5 10 -3 15 -9 12 -12z
m40 7 c11 -16 1 -19 -13 -3 -7 8 -8 14 -3 14 5 0 13 -5 16 -11z m29 -35 c3 -8
2 -12 -4 -9 -6 3 -10 10 -10 16 0 14 7 11 14 -7z m71 -44 c-3 -5 -12 -10 -18
-10 -7 0 -6 4 3 10 19 12 23 12 15 0z m81 -53 c1 -7 -6 -13 -16 -13 -9 0 -17
6 -17 12 0 7 7 10 15 6 11 -4 13 -1 7 9 -5 8 -4 11 0 6 5 -4 10 -13 11 -20z
m-898 -300 c3 -59 5 -67 22 -67 14 0 30 19 55 70 26 51 41 70 55 70 11 0 20
-2 20 -5 0 -2 -16 -38 -36 -78 l-37 -73 41 -72 41 -72 -28 0 c-24 0 -31 8 -56
60 -23 48 -33 60 -52 60 -21 0 -23 -4 -23 -60 0 -57 -1 -60 -25 -60 l-25 0 0
143 c0 79 3 147 7 151 4 4 14 5 23 4 11 -3 16 -19 18 -71z m402 53 c0 -18 -7
-20 -70 -20 l-70 0 0 -45 0 -45 60 0 c53 0 60 -2 60 -20 0 -18 -7 -20 -60 -20
l-60 0 0 -45 0 -45 70 0 c63 0 70 -2 70 -20 0 -19 -7 -20 -90 -20 l-90 0 0
150 0 150 90 0 c83 0 90 -1 90 -20z m202 -109 c26 -68 50 -126 53 -129 3 -3 5
54 5 126 0 125 1 132 20 132 19 0 20 -7 20 -151 l0 -150 -37 3 -36 3 -46 117
c-26 64 -50 120 -54 124 -4 4 -7 -50 -7 -119 0 -120 -1 -127 -20 -127 -19 0
-20 7 -20 151 l0 150 37 -3 37 -3 48 -124z m233 68 c16 -33 33 -63 37 -65 4
-3 22 24 40 61 26 53 37 65 56 65 23 0 23 -2 -22 -86 -41 -77 -46 -93 -46
-150 0 -62 -1 -64 -25 -64 -24 0 -25 2 -25 64 0 57 -5 74 -40 138 -44 82 -48
98 -22 98 13 0 28 -19 47 -61z m386 -89 c21 -80 38 -146 39 -148 0 -2 -10 -2
-22 0 -15 2 -25 13 -32 36 -9 31 -10 32 -66 32 -56 0 -57 -1 -66 -32 -7 -23
-17 -34 -33 -36 -18 -3 -22 0 -17 15 3 10 19 72 36 138 17 66 33 126 35 133 3
9 19 12 46 10 l42 -3 38 -145z m226 25 c24 -66 49 -124 55 -130 7 -7 8 31 3
123 l-7 132 26 0 26 0 0 -150 0 -150 -38 0 -39 0 -42 108 c-23 59 -46 114 -51
122 -7 10 -10 -26 -10 -107 l0 -123 -25 0 -25 0 0 151 0 150 41 -3 41 -3 45
-120z m462 114 c58 -20 83 -112 57 -203 -21 -70 -47 -86 -146 -86 l-70 0 0
150 0 150 64 0 c34 0 77 -5 95 -11z m329 -11 c-3 -21 -9 -23 -70 -26 l-68 -3
0 -39 0 -40 55 0 c48 0 55 -2 55 -20 0 -18 -7 -20 -55 -20 -54 0 -55 0 -55
-29 0 -16 -3 -36 -6 -45 -5 -13 6 -16 67 -18 61 -2 74 -6 77 -20 3 -16 -6 -18
-92 -18 l-96 0 0 150 0 150 96 0 c93 0 95 -1 92 -22z m96 5 c3 -10 15 -61 26
-113 28 -126 30 -130 41 -130 12 0 11 -3 45 143 25 109 29 117 50 117 13 0 24
-3 24 -6 0 -4 -17 -71 -37 -151 l-38 -144 -44 3 -45 3 -32 120 c-50 193 -48
175 -20 175 15 0 27 -7 30 -17z m436 -8 c0 -24 -2 -25 -70 -25 l-70 0 0 -40 0
-40 55 0 c48 0 55 -2 55 -20 0 -18 -7 -20 -55 -20 l-55 0 0 -45 0 -44 67 -3
c55 -2 68 -6 71 -20 3 -16 -6 -18 -92 -18 l-96 0 0 150 0 150 95 0 c95 0 95 0
95 -25z m112 -107 l-3 -127 63 -3 c50 -2 63 -6 66 -20 3 -16 -6 -18 -82 -18
l-86 0 0 151 c0 150 0 150 23 147 22 -3 22 -5 19 -130z m370 103 c33 -29 33
-30 33 -125 0 -91 -1 -97 -27 -123 -24 -23 -36 -27 -84 -27 -51 0 -59 3 -85
32 -27 30 -29 38 -29 115 0 121 27 157 117 157 33 0 50 -7 75 -29z m273 14
c53 -21 71 -86 40 -144 -16 -32 -59 -51 -116 -51 l-39 0 0 -45 c0 -38 -3 -45
-20 -45 -19 0 -20 7 -20 150 l0 150 60 0 c33 0 76 -7 95 -15z m305 -5 c0 -18
-7 -20 -70 -20 l-70 0 0 -45 0 -45 53 0 c58 0 68 -4 60 -26 -3 -10 -22 -14
-59 -14 l-54 0 0 -45 0 -45 70 0 c63 0 70 -2 70 -20 0 -19 -7 -20 -90 -20
l-90 0 0 150 0 150 90 0 c83 0 90 -1 90 -20z m229 9 c39 -14 51 -35 51 -89 0
-30 -6 -47 -23 -64 -23 -23 -23 -24 -7 -57 32 -62 34 -79 10 -79 -16 0 -27 13
-45 55 -23 52 -27 55 -60 55 l-35 0 0 -55 c0 -52 -1 -55 -25 -55 l-25 0 0 143
c0 79 3 147 7 150 10 11 117 8 152 -4z m-3931 -441 c3 -15 -5 -18 -50 -18 -29
0 -59 -4 -67 -9 -18 -11 -31 -86 -24 -136 10 -69 17 -75 83 -75 53 0 60 -2 60
-20 0 -18 -7 -20 -61 -20 -33 0 -69 5 -81 11 -63 34 -65 240 -1 278 10 6 45
10 78 8 48 -2 60 -5 63 -19z m251 7 c36 -18 51 -60 51 -137 0 -67 -19 -122
-48 -137 -35 -19 -116 -13 -145 9 -64 51 -53 242 16 270 34 14 95 11 126 -5z
m242 -105 c20 -64 39 -108 42 -100 3 8 20 61 37 118 l31 103 37 -3 37 -3 0
-145 c0 -143 0 -145 -22 -148 -23 -3 -23 -2 -24 125 l0 128 -40 -122 c-35
-108 -42 -123 -62 -123 -19 0 -27 15 -62 123 l-40 122 -3 -127 c-2 -120 -4
-128 -22 -128 -19 0 -20 7 -20 151 l0 150 37 -3 37 -3 37 -115z m379 13 c17
-60 35 -111 39 -116 4 -4 22 45 41 108 l34 115 38 0 38 0 0 -150 c0 -143 -1
-150 -20 -150 -18 0 -20 8 -22 128 l-3 127 -41 -120 c-36 -108 -43 -120 -64
-120 -21 0 -27 12 -61 115 l-37 115 -1 -122 -1 -123 -25 0 -25 0 0 143 c0 79
3 147 7 150 3 4 21 7 38 7 32 0 32 0 65 -107z m320 -11 c0 -78 4 -122 12 -130
7 -7 31 -12 55 -12 56 0 63 17 63 156 0 99 1 104 21 104 20 0 20 -4 17 -131
-3 -123 -4 -132 -27 -150 -33 -27 -119 -26 -155 2 -26 20 -26 22 -26 150 0
122 1 129 20 129 19 0 20 -7 20 -118z m384 -17 l51 -130 3 133 c2 124 4 132
22 132 19 0 20 -7 20 -151 l0 -150 -37 3 -38 3 -50 129 -50 128 -3 -131 c-2
-123 -4 -131 -22 -131 -19 0 -20 7 -20 151 l0 150 36 -3 37 -3 51 -130z m226
-15 c0 -143 -1 -150 -20 -150 -19 0 -20 7 -20 150 0 143 1 150 20 150 19 0 20
-7 20 -150z m280 130 c0 -17 -7 -20 -45 -20 l-45 0 0 -130 c0 -123 -1 -130
-20 -130 -19 0 -20 7 -20 130 l0 130 -45 0 c-38 0 -45 3 -45 20 0 19 7 20 110
20 103 0 110 -1 110 -20z m109 -47 l33 -68 34 68 c25 49 40 67 54 67 11 0 20
-3 20 -7 0 -5 -21 -46 -45 -92 -39 -71 -45 -91 -45 -142 0 -52 -2 -59 -20 -59
-18 0 -20 7 -20 62 0 54 -6 72 -45 145 -25 45 -45 85 -45 88 0 3 10 5 23 5 18
0 29 -14 56 -67z m229 -490 c-3 -17 -75 -18 -1316 -21 -1307 -2 -1312 -2
-1312 18 0 20 6 20 1316 20 1247 0 1315 -1 1312 -17z m-1280 -984 c-6 -16 -12
-28 -14 -26 -5 5 13 57 20 57 3 0 0 -14 -6 -31z m-137 -46 l-44 -37 44 -39 44
-40 -45 35 c-25 20 -45 40 -45 46 0 10 73 71 85 72 3 0 -15 -17 -39 -37z m222
-7 l38 -30 -23 -18 c-57 -45 -79 -57 -38 -20 l45 40 -29 23 c-17 13 -37 30
-45 37 -31 26 12 0 52 -32z m-112 -13 c-12 -20 -14 -14 -5 12 4 9 9 14 11 11
3 -2 0 -13 -6 -23z m-27 -74 c-9 -24 -21 -48 -26 -54 -5 -5 0 14 11 43 12 29
21 56 21 59 0 3 2 4 5 1 3 -3 -2 -25 -11 -49z m-664 -171 l0 -43 36 43 c33 38
64 55 64 33 0 -4 -13 -25 -30 -46 -16 -21 -30 -40 -30 -42 0 -3 16 -25 36 -49
36 -44 36 -44 12 -44 -18 0 -33 12 -54 42 l-29 42 -3 -42 c-3 -34 -7 -42 -23
-42 -17 0 -19 8 -19 88 0 90 3 102 27 102 9 0 13 -14 13 -42z m359 31 c31 -11
60 -51 62 -86 0 -15 2 -14 9 4 19 46 69 55 105 18 39 -38 33 -55 -21 -55 -32
0 -44 -4 -41 -12 2 -7 19 -13 37 -13 40 0 52 -22 17 -30 -42 -11 -70 -1 -92
31 -21 30 -22 31 -31 10 -12 -28 -51 -46 -101 -46 l-43 0 0 95 0 95 34 0 c18
0 47 -5 65 -11z m469 -11 c3 -15 -4 -18 -42 -18 -39 0 -46 -3 -46 -20 0 -17 7
-20 40 -20 29 0 40 -4 40 -15 0 -11 -11 -15 -40 -15 l-40 0 0 -41 c0 -33 -3
-40 -17 -37 -15 3 -18 16 -19 88 0 47 1 89 4 93 2 4 29 7 60 5 45 -2 58 -7 60
-20z m-610 -45 c11 -10 23 -28 27 -40 6 -22 4 -23 -46 -23 -46 0 -50 -2 -38
-16 8 -10 22 -14 40 -10 30 6 49 -18 23 -28 -83 -32 -149 50 -89 109 28 29 55
32 83 8z m737 -8 c28 -27 31 -45 14 -78 -16 -30 -28 -37 -65 -37 -40 0 -67 30
-66 72 2 63 72 89 117 43z m345 15 c13 -7 21 -7 25 0 9 15 52 12 69 -6 11 -10
16 -34 16 -70 0 -47 -2 -54 -20 -54 -17 0 -20 7 -20 50 0 43 -3 50 -20 50 -17
0 -20 -7 -20 -50 0 -43 -3 -50 -20 -50 -17 0 -20 7 -20 50 0 43 -3 50 -20 50
-17 0 -20 -7 -20 -51 0 -43 -3 -50 -17 -47 -27 5 -32 124 -6 131 32 8 54 7 73
-3z m-689 -37 c18 -59 21 -60 36 -10 10 34 19 47 32 47 19 0 18 -2 -2 -65 -19
-58 -24 -65 -47 -65 -23 0 -28 7 -47 65 -20 62 -20 65 -3 65 12 0 22 -12 31
-37z m459 22 c0 -8 -9 -15 -20 -15 -17 0 -20 -7 -20 -50 0 -43 -3 -50 -20 -50
-18 0 -20 7 -20 65 l0 65 40 0 c29 0 40 -4 40 -15z m50 -35 c0 -43 3 -50 20
-50 17 0 20 7 20 50 0 43 3 50 20 50 18 0 20 -7 20 -65 l0 -65 -48 0 c-26 0
-53 5 -60 12 -7 7 -12 36 -12 65 0 46 3 53 20 53 17 0 20 -7 20 -50z m-896
-190 c11 8 14 5 14 -15 0 -20 -3 -23 -14 -14 -10 8 -14 8 -14 0 0 -6 -4 -11
-10 -11 -12 0 -14 63 -2 74 4 4 8 -4 10 -19 3 -20 6 -24 16 -15z m408 -42
c-15 -15 -42 3 -42 28 0 17 6 24 20 24 12 0 21 7 22 18 1 9 3 0 5 -22 3 -21 0
-43 -5 -48z m264 49 c24 4 34 2 34 -8 0 -10 3 -10 12 -1 7 7 22 12 35 12 30 0
33 -46 3 -55 -11 -3 -20 -11 -20 -16 0 -6 -4 -7 -10 -4 -5 3 -10 16 -10 28 -1
20 -2 20 -11 5 -12 -22 -32 -23 -49 -3 -11 13 -15 13 -21 3 -5 -8 -8 5 -7 32
0 25 3 35 5 23 4 -19 9 -21 39 -16z m-586 -12 c0 -9 -10 -15 -22 -16 -22 -1
-22 -1 2 -9 22 -6 23 -8 7 -15 -23 -10 -50 15 -41 38 8 21 54 23 54 2z m68
-12 c2 -13 -1 -23 -7 -23 -6 0 -11 9 -11 20 0 11 -4 20 -10 20 -5 0 -10 -9
-10 -20 0 -11 -4 -20 -10 -20 -5 0 -10 12 -10 26 0 22 4 25 28 22 19 -2 28 -9
30 -25z m32 -13 c4 0 11 10 15 23 7 21 8 21 12 -6 6 -40 -3 -57 -29 -57 -21 0
-21 0 -2 15 17 13 17 14 2 15 -13 0 -18 8 -17 28 2 23 2 24 6 5 2 -13 8 -23
13 -23z m90 9 c0 -26 -3 -30 -22 -27 -28 4 -38 38 -11 39 16 0 16 1 -2 9 -18
8 -17 9 8 9 24 1 27 -3 27 -30z m59 4 c-2 -24 -2 -25 -6 -5 -5 27 -23 29 -23
2 0 -11 -4 -20 -10 -20 -5 0 -10 11 -10 25 0 20 5 25 25 25 21 0 25 -4 24 -27z
m151 12 c0 -9 -10 -15 -22 -16 -22 -1 -22 -1 2 -9 22 -6 23 -8 7 -15 -23 -10
-52 17 -44 39 8 21 57 21 57 1z m49 2 c10 17 10 17 11 -3 0 -12 -7 -27 -15
-34 -12 -10 -16 -8 -25 15 -14 36 -12 44 4 22 14 -18 15 -18 25 0z m79 -4 c2
-8 -6 -13 -20 -14 -23 -1 -23 -1 2 -9 22 -6 23 -8 7 -15 -23 -10 -52 17 -43
40 7 19 47 17 54 -2z m230 0 c2 -8 -6 -13 -20 -14 -21 0 -21 -1 -4 -8 15 -6
16 -10 7 -15 -18 -11 -45 18 -37 39 7 19 47 17 54 -2z m36 9 c-7 -4 -14 -16
-17 -27 -4 -15 -5 -14 -6 8 -1 20 4 27 17 27 11 0 13 -3 6 -8z m48 -1 c-11 -7
-11 -9 2 -14 9 -4 16 -11 16 -16 0 -14 -32 -23 -44 -11 -7 7 -4 10 10 10 18 1
18 1 2 11 -25 14 -22 29 5 29 16 0 18 -3 9 -9z m-1741 -958 l15 -78 19 78 c11
43 24 77 31 77 7 0 20 -33 30 -77 l18 -78 12 50 c7 28 13 62 13 78 1 16 7 27
15 27 11 0 10 -14 -3 -82 -14 -69 -20 -83 -36 -83 -15 0 -22 13 -33 65 -16 71
-24 66 -37 -24 -6 -36 -11 -46 -26 -46 -20 0 -32 34 -44 123 -12 78 10 54 26
-30z m230 0 l15 -78 18 78 c11 48 23 77 31 77 9 0 20 -28 31 -77 l18 -78 12
50 c7 28 13 62 13 78 1 16 7 27 15 27 11 0 10 -14 -3 -82 -14 -70 -20 -83 -36
-83 -17 0 -23 12 -34 69 l-15 69 -15 -69 c-13 -55 -20 -69 -35 -69 -16 0 -22
14 -36 83 -11 58 -13 82 -5 82 6 0 18 -35 26 -77z m220 50 c0 -16 6 -50 13
-78 l12 -50 18 78 c10 44 23 77 30 77 7 0 20 -34 31 -77 l19 -78 15 78 c16 83
38 108 27 31 -19 -142 -51 -164 -75 -54 l-15 65 -12 -40 c-7 -22 -13 -50 -13
-63 -1 -22 -26 -41 -38 -28 -3 3 -14 42 -24 86 -14 67 -15 80 -3 80 8 0 14
-11 15 -27z m299 -13 c0 -22 4 -40 10 -40 5 0 21 18 35 40 34 54 50 51 23 -4
l-21 -44 22 -35 c23 -38 26 -47 12 -47 -6 0 -20 18 -32 40 -13 22 -29 40 -36
40 -9 0 -13 -14 -13 -40 0 -22 -4 -40 -10 -40 -6 0 -10 35 -10 85 0 50 4 85
10 85 6 0 10 -18 10 -40z m235 30 c-3 -5 -24 -10 -46 -10 -35 0 -39 -3 -39
-25 0 -22 4 -25 35 -25 19 0 35 -4 35 -10 0 -5 -16 -10 -35 -10 -32 0 -35 -2
-35 -30 0 -29 2 -30 45 -30 25 0 45 -4 45 -10 0 -5 -25 -10 -55 -10 l-55 0 0
85 0 85 56 0 c34 0 53 -4 49 -10z m71 -65 c10 -41 21 -75 25 -75 4 0 15 34 25
75 10 43 23 75 30 75 9 0 6 -23 -10 -82 -19 -68 -27 -84 -44 -86 -17 -3 -23 5
-36 48 -23 79 -30 120 -18 120 6 0 18 -34 28 -75z m224 65 c-8 -5 -27 -10 -42
-10 -24 0 -28 -4 -28 -30 0 -27 3 -30 30 -30 17 0 30 -4 30 -10 0 -5 -13 -10
-30 -10 -28 0 -30 -3 -30 -36 0 -24 -4 -34 -12 -32 -9 3 -14 31 -15 86 l-2 82
57 0 c41 0 53 -3 42 -10z m159 -8 c20 -37 17 -114 -5 -136 -24 -24 -80 -20
-98 6 -21 30 -21 106 1 130 22 24 89 25 102 0z m173 -8 c10 -21 9 -31 -5 -56
-15 -27 -15 -32 -2 -59 9 -17 11 -29 5 -29 -6 0 -18 16 -27 35 -12 25 -23 35
-40 35 -20 0 -23 -5 -23 -35 0 -19 -4 -35 -10 -35 -6 0 -10 35 -10 85 l0 85
50 0 c45 0 52 -3 62 -26z m68 -38 c0 -70 12 -90 52 -84 21 3 23 8 26 76 4 95
22 93 22 -3 0 -63 -3 -76 -19 -85 -24 -12 -61 -13 -81 0 -18 11 -29 160 -11
160 7 0 11 -24 11 -64z m212 -3 l25 -68 22 68 c17 52 27 67 42 67 17 0 19 -8
19 -85 0 -104 -18 -114 -22 -12 l-3 72 -23 -67 c-13 -38 -29 -68 -36 -68 -7 0
-21 27 -31 60 -10 34 -22 63 -27 66 -4 3 -8 -27 -8 -65 0 -41 -4 -71 -10 -71
-6 0 -10 35 -10 85 0 76 2 85 19 85 13 0 25 -17 43 -67z m328 57 c0 -5 -13 -7
-28 -4 -38 8 -62 -17 -62 -62 0 -54 15 -74 55 -74 19 0 35 -4 35 -10 0 -5 -18
-10 -39 -10 -30 0 -44 6 -55 22 -18 25 -21 84 -6 122 8 23 15 26 55 26 25 0
45 -4 45 -10z m152 -7 c23 -21 25 -99 2 -131 -18 -26 -74 -30 -98 -6 -23 22
-25 98 -5 136 13 23 76 24 101 1z m121 -43 c9 -33 21 -60 26 -60 4 0 16 27 26
60 14 45 23 60 37 60 16 0 18 -9 18 -85 0 -50 -4 -85 -10 -85 -6 0 -10 31 -11
73 l-1 72 -22 -65 c-13 -38 -28 -65 -37 -65 -8 0 -22 25 -34 60 l-20 60 -3
-68 c-4 -97 -22 -83 -22 18 0 74 2 85 18 85 12 0 22 -16 35 -60z m-1813 -95
c0 -8 -4 -15 -10 -15 -5 0 -10 7 -10 15 0 8 5 15 10 15 6 0 10 -7 10 -15z
m1390 0 c0 -8 -4 -15 -10 -15 -5 0 -10 7 -10 15 0 8 5 15 10 15 6 0 10 -7 10
-15z"/>
<path d="M1216 8245 c-3 -9 0 -15 9 -15 8 0 15 7 15 15 0 8 -4 15 -9 15 -5 0
-11 -7 -15 -15z"/>
<path d="M1070 8132 c0 -12 19 -26 26 -19 2 2 -2 10 -11 17 -9 8 -15 8 -15 2z"/>
<path d="M1191 7504 c0 -11 3 -14 6 -6 3 7 2 16 -1 19 -3 4 -6 -2 -5 -13z"/>
<path d="M1160 7450 c0 -5 5 -10 10 -10 6 0 10 5 10 10 0 6 -4 10 -10 10 -5 0
-10 -4 -10 -10z"/>
<path d="M924 6472 c4 -3 14 -7 22 -8 9 -1 13 0 10 4 -4 3 -14 7 -22 8 -9 1
-13 0 -10 -4z"/>
<path d="M868 6443 c6 -2 18 -2 25 0 6 3 1 5 -13 5 -14 0 -19 -2 -12 -5z"/>
<path d="M910 6400 c-11 -11 -20 -26 -20 -32 0 -7 6 -4 12 7 6 11 19 25 27 32
9 7 13 13 9 13 -5 0 -17 -9 -28 -20z"/>
<path d="M835 6311 c-3 -5 -2 -12 3 -15 5 -3 9 1 9 9 0 17 -3 19 -12 6z"/>
<path d="M1126 6303 c-6 -14 -5 -15 5 -6 7 7 10 15 7 18 -3 3 -9 -2 -12 -12z"/>
<path d="M1160 6311 c0 -6 4 -13 10 -16 6 -3 7 1 4 9 -7 18 -14 21 -14 7z"/>
<path d="M1046 6279 c3 -5 12 -9 20 -9 8 0 12 -4 9 -10 -7 -12 5 -13 23 -2 8
6 1 12 -23 19 -19 6 -33 7 -29 2z"/>
<path d="M1128 6263 c7 -3 16 -2 19 1 4 3 -2 6 -13 5 -11 0 -14 -3 -6 -6z"/>
<path d="M966 6229 c3 -5 9 -7 14 -4 4 3 11 0 13 -5 3 -6 4 -5 3 1 -1 7 -10
13 -19 15 -9 1 -15 -2 -11 -7z"/>
<path d="M976 6184 c-15 -14 -14 -34 1 -34 4 0 3 3 0 7 -4 3 0 15 10 25 20 22
11 24 -11 2z"/>
<path d="M1204 6088 c0 -21 3 -38 8 -38 4 0 8 9 8 20 0 11 5 20 11 20 5 0 7 5
4 10 -3 6 -1 10 4 10 14 0 14 -6 1 -30 -7 -13 -6 -19 5 -24 12 -4 15 3 15 29
0 19 -3 35 -7 36 -5 0 -17 2 -28 3 -18 2 -21 -3 -21 -36z"/>
<path d="M962 6100 c0 -14 2 -19 5 -12 2 6 2 18 0 25 -3 6 -5 1 -5 -13z"/>
<path d="M707 6069 c7 -7 15 -10 18 -7 3 3 -2 9 -12 12 -14 6 -15 5 -6 -5z"/>
<path d="M952 5960 c0 -19 2 -27 5 -17 2 9 2 25 0 35 -3 9 -5 1 -5 -18z"/>
<path d="M780 5960 c6 -11 13 -20 16 -20 2 0 0 9 -6 20 -6 11 -13 20 -16 20
-2 0 0 -9 6 -20z"/>
<path d="M818 5913 c6 -2 9 -10 6 -15 -4 -7 -2 -8 5 -4 13 9 5 26 -12 25 -9 0
-8 -2 1 -6z"/>
<path d="M835 5881 c-3 -5 -2 -12 3 -15 5 -3 9 1 9 9 0 17 -3 19 -12 6z"/>
<path d="M964 5835 c3 -16 0 -36 -6 -44 -7 -9 -8 -13 -4 -9 5 4 15 3 23 -3 7
-6 13 -8 13 -4 0 4 8 1 18 -6 15 -13 16 -12 3 3 -7 10 -17 16 -21 13 -5 -3
-11 -1 -15 5 -3 5 -1 10 5 10 6 0 8 5 3 13 -4 6 -8 18 -9 25 -2 8 -5 17 -9 20
-3 4 -4 -7 -1 -23z"/>
<path d="M905 5830 c-4 -6 -10 -8 -15 -5 -4 3 -7 -2 -6 -10 4 -25 11 -25 23 1
11 24 10 33 -2 14z"/>
<path d="M919 5813 c-13 -16 -12 -17 4 -4 16 13 21 21 13 21 -2 0 -10 -8 -17
-17z"/>
<path d="M911 5781 c-10 -6 -9 -10 3 -14 8 -3 18 -2 21 3 8 13 -9 20 -24 11z"/>
<path d="M710 5723 c0 -4 43 -7 96 -5 72 3 99 0 106 -10 8 -10 9 -10 5 2 -3
12 -25 16 -105 18 -56 1 -102 -1 -102 -5z"/>
<path d="M1050 5701 c0 -5 7 -12 16 -15 14 -5 15 -4 4 9 -14 17 -20 19 -20 6z"/>
<path d="M960 5263 c22 -31 39 -46 25 -23 -4 6 -1 19 6 28 11 14 11 15 -1 5
-11 -10 -18 -9 -34 5 -15 13 -15 10 4 -15z"/>
<path d="M1015 5269 c-6 -8 -4 -10 5 -4 9 5 10 1 6 -16 -6 -21 -6 -22 5 -6 7
13 8 22 1 29 -6 6 -12 6 -17 -3z"/>
<path d="M1160 5190 c0 -5 5 -10 10 -10 6 0 10 5 10 10 0 6 -4 10 -10 10 -5 0
-10 -4 -10 -10z"/>
<path d="M1187 5130 c-3 -11 -1 -20 4 -20 5 0 9 9 9 20 0 11 -2 20 -4 20 -2 0
-6 -9 -9 -20z"/>
<path d="M1150 5100 c0 -5 5 -10 10 -10 6 0 10 5 10 10 0 6 -4 10 -10 10 -5 0
-10 -4 -10 -10z"/>
<path d="M1170 5065 c-13 -14 -18 -25 -12 -25 7 0 12 5 12 10 0 6 5 10 10 10
6 0 10 -7 10 -15 0 -8 -5 -15 -12 -15 -6 0 -9 -2 -6 -5 3 -3 12 -3 21 1 13 5
14 10 6 25 -5 11 -7 24 -4 29 11 18 -1 11 -25 -15z"/>
<path d="M8410 7679 c-14 -6 -35 -19 -47 -31 -17 -16 -30 -19 -60 -14 -154 26
-196 17 -220 -44 -12 -29 -23 -41 -44 -45 -16 -4 -32 -4 -37 -1 -5 3 -20 -1
-35 -9 -22 -11 -28 -11 -38 2 -19 22 -65 43 -94 43 -17 0 -37 -12 -55 -32 -26
-28 -34 -31 -85 -29 -72 2 -93 -10 -97 -56 -3 -32 -7 -38 -42 -50 -48 -16 -74
-38 -78 -67 -3 -19 -11 -21 -92 -26 -81 -5 -90 -8 -112 -33 -30 -35 -31 -88
-4 -140 l20 -37 -30 0 c-79 0 -138 -58 -127 -126 6 -35 -11 -64 -38 -64 -7 0
-23 -12 -35 -27 -22 -28 -23 -58 -5 -119 4 -14 -2 -30 -19 -51 -14 -17 -26
-39 -26 -50 0 -10 -18 -37 -40 -58 -22 -21 -40 -48 -40 -60 0 -36 28 -65 71
-71 35 -6 39 -9 40 -38 1 -17 2 -59 4 -92 l4 -62 -40 -18 c-71 -31 -79 -61
-32 -117 31 -39 29 -63 -7 -82 -33 -17 -38 -40 -16 -83 7 -15 17 -45 20 -66 5
-24 19 -50 36 -66 20 -19 30 -38 32 -66 3 -34 8 -41 41 -57 39 -20 45 -36 26
-83 -16 -43 -3 -71 40 -93 43 -23 51 -36 51 -90 0 -43 24 -71 80 -95 l35 -14
-43 -17 c-41 -17 -112 -86 -112 -111 0 -6 -24 -36 -54 -66 -68 -69 -90 -125
-84 -212 3 -47 12 -81 36 -127 18 -34 31 -63 30 -63 -2 -1 -34 -9 -73 -19 -77
-19 -114 -41 -132 -79 -7 -13 -24 -94 -38 -179 -44 -255 -58 -294 -204 -558
-83 -149 -160 -307 -171 -353 -15 -59 9 -216 50 -330 37 -102 120 -247 195
-338 65 -80 232 -242 338 -329 76 -63 77 -64 77 -112 0 -61 6 -77 40 -94 116
-60 673 -108 1255 -108 589 1 1138 48 1255 108 34 17 40 33 40 95 l0 48 88 73
c119 100 297 280 360 364 121 162 201 366 209 530 6 121 9 113 -172 448 -68
128 -134 259 -145 292 -12 33 -35 139 -51 235 -39 222 -44 234 -111 265 -29
13 -72 27 -95 31 -24 3 -43 8 -43 9 0 2 15 34 32 71 28 58 33 81 33 139 0 83
-21 131 -80 190 -23 22 -54 61 -69 88 -30 52 -83 93 -135 103 -30 6 -32 9 -17
19 9 7 20 30 24 52 9 48 45 96 69 91 11 -2 22 -20 31 -51 13 -46 23 -54 57
-41 24 10 55 78 55 124 0 33 7 48 40 84 34 37 40 50 40 89 0 37 6 53 35 87 46
55 45 79 -5 124 -22 20 -36 36 -31 36 5 0 23 12 40 26 36 30 41 73 15 128 -15
31 -15 37 0 82 30 88 27 96 -63 162 l-23 18 27 39 c32 48 30 103 -6 141 -22
23 -22 25 -6 59 33 68 20 101 -43 107 -32 3 -35 6 -38 38 -5 49 -27 70 -74 70
l-38 0 2 84 c3 97 -3 109 -59 110 -33 2 -38 5 -46 36 -15 63 -48 145 -66 166
-24 30 -58 46 -89 43 -38 -4 -52 7 -52 42 0 84 -82 119 -207 88 -52 -14 -57
-9 -67 53 -7 46 -35 76 -77 85 -18 3 -34 14 -39 27 -12 34 -45 57 -87 63 -32
4 -44 0 -77 -26 -50 -40 -69 -39 -95 5 -21 35 -23 36 -67 30 -36 -5 -51 -2
-72 14 -34 25 -88 33 -122 19z m-240 -109 c-4 -19 -8 -29 -9 -22 -2 20 -21 3
-21 -18 0 -31 -39 -50 -100 -49 l-55 1 60 12 c57 10 61 13 81 54 17 37 43 66
50 59 2 -1 -1 -18 -6 -37z m300 20 c11 -7 11 -10 2 -10 -7 0 -25 -9 -41 -21
-18 -13 -38 -19 -57 -16 l-29 4 31 2 c22 1 37 9 48 26 18 27 24 29 46 15z
m162 -37 c15 -59 73 -57 151 3 44 34 77 40 77 13 0 -9 -3 -9 -14 0 -10 9 -24
3 -62 -29 -41 -34 -56 -40 -95 -40 -50 0 -62 9 -73 53 -5 22 -11 27 -24 21 -9
-4 -35 -9 -57 -10 l-40 -3 38 8 c20 4 40 11 44 15 17 17 47 0 55 -31z m-757
-43 c3 -5 0 -10 -8 -10 -7 0 -30 -18 -51 -41 -35 -39 -38 -41 -80 -35 -42 7
-44 6 -49 -23 -6 -26 -13 -32 -53 -42 -37 -10 -49 -18 -62 -47 -22 -44 -107
-86 -159 -76 -48 9 -30 24 30 24 65 0 95 19 99 63 3 29 7 33 46 42 43 11 65
31 61 57 -4 34 1 37 55 31 52 -5 54 -5 81 31 20 26 35 36 56 36 15 0 31 -4 34
-10z m1069 -46 c9 -8 16 -20 16 -27 0 -6 -6 -3 -13 6 -6 10 -26 21 -42 26
l-30 9 27 1 c15 1 34 -6 42 -15z m260 -176 c-18 -56 25 -93 121 -104 40 -5 60
-13 70 -28 23 -32 18 -39 -12 -17 -16 11 -50 25 -76 31 -90 20 -150 62 -131
92 4 6 7 24 6 40 -1 25 2 27 14 17 8 -7 12 -20 8 -31z m-685 -171 c16 -24 31
-56 33 -73 2 -23 10 -31 36 -39 36 -10 39 -17 17 -35 -8 -7 -15 -23 -15 -37 0
-14 -4 -22 -11 -18 -6 4 -7 19 -4 37 6 23 3 33 -14 44 -12 9 -21 26 -21 40 0
28 -42 100 -74 127 l-21 18 22 -10 c12 -6 36 -31 52 -54z m-558 -89 c-4 -12
-5 -38 -1 -59 4 -23 2 -49 -7 -69 -7 -18 -13 -41 -13 -52 0 -10 -4 -16 -10
-13 -15 9 -12 42 6 77 13 25 14 38 4 76 -9 36 -8 47 2 53 22 14 28 10 19 -13z
m-824 -235 c3 -61 0 -70 -24 -95 -15 -15 -28 -36 -29 -45 -1 -10 -6 -35 -9
-55 -8 -38 -8 -38 26 -38 19 0 53 9 77 20 23 11 40 16 38 11 -11 -17 -75 -41
-108 -41 -19 0 -43 6 -53 14 -19 14 -19 15 -2 34 13 14 16 28 11 46 -5 23 0
33 30 61 l37 34 -16 36 c-23 56 -19 79 15 84 3 0 6 -29 7 -66z m2553 -52 c0
-43 7 -51 54 -61 42 -8 39 -31 -8 -54 -26 -13 -43 -30 -53 -55 l-15 -35 -15
27 c-8 16 -29 37 -46 48 l-32 21 30 -7 c17 -4 38 -14 48 -22 16 -15 20 -14 50
13 17 16 36 32 41 36 5 4 -7 13 -27 21 -26 11 -37 23 -42 46 -5 23 -16 36 -38
46 l-32 13 43 1 42 1 0 -39z m-560 -30 c22 -7 21 -8 -17 -14 -31 -5 -49 -15
-65 -37 -24 -33 -49 -38 -68 -15 -16 19 -48 19 -92 1 -41 -18 -54 -11 -60 32
-5 39 0 40 27 7 18 -23 23 -24 59 -14 28 8 46 8 63 0 31 -14 25 -16 61 19 32
30 47 34 92 21z m90 -31 c-6 -4 -23 -2 -36 4 l-24 11 23 3 c12 2 27 8 32 13 7
7 11 4 13 -7 2 -9 -1 -20 -8 -24z m-1113 -62 c9 -2 26 -21 37 -43 18 -34 26
-40 57 -43 31 -3 41 3 80 45 25 27 51 57 57 68 11 20 12 19 32 -5 11 -14 20
-39 20 -56 0 -35 30 -80 60 -89 11 -4 36 -1 56 5 34 12 37 11 65 -20 25 -27
34 -31 57 -25 15 4 52 7 83 6 48 -1 62 2 88 25 40 33 39 52 -4 94 -19 19 -35
39 -35 44 0 6 10 -2 21 -17 22 -29 74 -59 121 -71 15 -3 30 -15 33 -26 4 -12
25 -32 47 -46 39 -25 40 -27 35 -69 -7 -68 10 -84 119 -114 23 -6 47 -18 54
-26 9 -11 0 -10 -33 5 -25 11 -85 27 -134 34 -48 7 -101 19 -118 26 -46 19
-208 15 -285 -8 -58 -17 -65 -22 -68 -46 -4 -36 -51 -56 -127 -56 -76 0 -123
20 -127 56 -3 24 -10 29 -67 45 -128 36 -198 35 -328 -6 -19 -6 -23 -3 -23 12
0 11 9 28 20 38 21 19 26 50 10 60 -5 3 -10 16 -10 28 0 17 11 28 43 42 l42
20 -3 72 c-2 70 -1 73 26 87 16 8 35 22 42 31 12 15 15 12 27 -28 8 -28 20
-47 30 -49z m-501 -30 c36 -55 37 -63 18 -157 -7 -33 -6 -34 25 -29 20 3 30 1
28 -6 -6 -16 -76 -11 -94 6 -13 14 -11 21 14 66 l28 50 -33 40 c-18 24 -32 52
-32 68 0 32 2 31 46 -38z m507 -397 c123 -10 149 -24 167 -93 9 -32 7 -44 -14
-86 -14 -27 -37 -63 -51 -81 l-27 -31 -102 0 c-57 0 -130 3 -164 6 l-60 7 -43
91 c-43 92 -52 144 -29 171 19 23 144 29 323 16z m944 -17 c22 -29 11 -89 -33
-179 l-39 -80 -55 -8 c-30 -4 -104 -6 -165 -5 l-109 3 -38 50 c-54 71 -64 106
-44 158 9 23 26 48 38 56 30 19 164 30 312 27 103 -3 121 -6 133 -22z m-572
-174 c7 -14 19 -51 26 -84 8 -39 15 -53 19 -41 5 15 10 12 29 -18 32 -52 71
-60 266 -54 199 5 217 12 254 84 l28 55 12 -31 c12 -28 11 -33 -13 -62 -33
-39 -33 -73 -1 -105 32 -32 31 -38 -5 -84 -20 -26 -30 -49 -30 -73 0 -49 -58
-101 -101 -92 -24 5 -29 3 -29 -12 0 -10 -4 -24 -9 -32 -7 -11 -16 0 -37 43
-23 50 -34 62 -73 79 l-45 20 -110 -26 c-61 -15 -142 -32 -181 -38 -73 -13
-71 -13 -376 54 -68 15 -114 -11 -155 -86 -31 -58 -44 -64 -44 -20 0 22 -3 24
-29 18 -41 -9 -101 43 -101 88 0 17 -12 48 -26 69 l-26 37 27 33 c36 42 29 87
-20 138 l-35 36 23 22 23 22 27 -55 c18 -37 36 -59 55 -67 17 -7 96 -12 213
-12 200 -1 227 4 248 50 6 14 16 21 24 18 10 -4 17 6 22 33 9 52 39 117 65
143 l22 22 25 -24 c14 -12 31 -34 38 -48z m913 -143 c2 -35 8 -57 14 -57 9 0
9 -3 1 -11 -7 -7 -18 -9 -26 -6 -11 4 -12 14 -3 57 11 57 17 48 -60 107 -22
18 -17 16 21 -5 50 -28 50 -28 53 -85z m402 -6 c0 -9 -9 -22 -21 -29 -27 -17
-49 -71 -49 -120 0 -31 -6 -42 -30 -60 -23 -18 -30 -30 -30 -57 0 -39 -5 -42
-32 -18 -21 19 -23 33 -4 33 8 0 17 11 20 25 4 14 18 35 31 47 19 17 25 31 25
65 0 35 6 50 36 83 24 26 34 46 30 56 -5 14 -4 15 9 4 8 -7 15 -20 15 -29z
m-2629 -88 c38 -23 74 -79 75 -118 0 -16 4 -39 9 -50 8 -18 7 -19 -8 -6 -10 7
-17 28 -17 45 0 36 -44 104 -85 130 -24 16 -33 45 -17 60 4 4 8 -4 10 -18 2
-16 15 -32 33 -43z m518 -170 c-38 -6 -89 -73 -89 -116 0 -19 7 -40 15 -47 40
-33 0 -63 -41 -31 -15 12 -21 21 -14 21 8 0 22 -8 33 -17 19 -18 20 -18 3 14
-18 35 -22 113 -6 113 6 0 15 11 20 25 11 28 41 44 80 43 l25 -1 -26 -4z m736
-138 c132 0 265 3 297 7 l56 8 11 -32 c21 -59 6 -153 -23 -142 -7 3 -21 -15
-33 -40 -30 -61 -76 -111 -127 -135 -56 -28 -80 -28 -66 -2 22 43 14 48 -51
38 -39 -7 -84 -7 -125 0 -68 10 -69 9 -54 -31 12 -33 -6 -35 -66 -5 -52 25
-99 76 -129 142 -15 31 -26 44 -30 36 -12 -18 -34 29 -35 72 0 20 5 50 11 67
l11 32 56 -8 c32 -4 165 -7 297 -7z m1039 -10 c-4 -8 -15 -15 -26 -15 -22 0
-60 -18 -70 -34 -4 -6 -8 -21 -8 -33 0 -15 -10 -28 -31 -38 -23 -12 -29 -21
-24 -36 5 -15 2 -19 -17 -19 -24 0 -48 16 -48 33 0 5 6 4 14 -2 11 -9 15 -7
19 8 2 11 15 21 28 23 19 2 25 12 32 45 4 23 13 46 20 51 10 8 70 25 109 31 4
1 5 -6 2 -14z m-2054 -75 c0 -5 -4 -10 -10 -10 -5 0 -10 5 -10 10 0 6 5 10 10
10 6 0 10 -4 10 -10z m-21 -99 c10 -6 4 -12 -22 -20 -69 -23 -114 -106 -103
-187 16 -116 88 -184 371 -349 181 -106 226 -136 277 -187 60 -60 115 -153
128 -214 11 -53 7 -87 -6 -48 -48 152 -156 245 -339 294 -262 70 -386 126
-486 218 -52 48 -73 75 -88 118 -25 65 -27 134 -6 174 19 36 35 39 35 6 0 -29
53 -133 82 -161 l21 -20 -7 25 c-4 14 -14 66 -23 115 -19 105 -10 155 35 200
41 42 97 57 131 36z m2169 -11 c75 -46 93 -121 63 -259 -12 -52 -19 -96 -17
-99 10 -9 76 106 87 151 6 26 16 47 21 47 5 0 16 -17 25 -37 34 -84 -7 -205
-98 -287 -98 -88 -222 -142 -503 -222 -173 -49 -274 -136 -322 -278 l-14 -41
5 52 c7 91 83 209 182 286 32 24 119 79 193 122 278 161 368 236 395 329 11
37 14 71 10 96 -8 50 -60 115 -103 130 -18 7 -30 16 -27 21 10 16 69 10 103
-11z m-1464 -644 c73 -56 179 -113 251 -136 22 -7 43 -17 46 -22 3 -5 7 -40 8
-78 2 -67 1 -69 -41 -121 -71 -86 -68 -86 -162 12 -57 59 -86 98 -94 126 -13
45 -94 160 -118 170 -19 7 -69 106 -100 197 -13 38 -24 71 -24 73 0 1 37 -36
81 -82 45 -47 114 -109 153 -139z m872 152 c-43 -119 -66 -162 -110 -208 -60
-63 -90 -107 -111 -162 -18 -50 -155 -208 -180 -208 -18 0 -104 97 -111 124
-3 12 -4 50 -2 85 l3 64 50 17 c135 46 286 149 407 279 40 43 74 78 75 77 2
-1 -8 -32 -21 -68z m-1753 -122 c69 -52 186 -99 377 -152 69 -19 131 -37 139
-40 17 -5 -32 -60 -86 -97 -18 -12 -33 -25 -33 -29 0 -4 15 -28 34 -52 47 -61
70 -136 71 -223 0 -39 -2 -73 -5 -76 -3 -3 -70 -12 -150 -21 -80 -9 -163 -19
-186 -22 l-41 -6 -28 79 c-34 95 -86 197 -121 238 -18 22 -24 24 -19 10 20
-60 47 -209 48 -270 l2 -70 -35 -8 c-19 -4 -80 -15 -135 -25 l-100 -17 3 -40
c1 -22 10 -100 18 -173 9 -74 13 -136 9 -140 -3 -4 -21 -5 -40 -3 -40 3 -150
-26 -165 -44 -8 -10 7 -22 62 -53 40 -23 95 -56 123 -74 45 -30 51 -38 58 -83
19 -122 71 -369 97 -465 16 -58 27 -106 26 -107 -5 -5 -273 236 -322 290 -96
105 -209 368 -221 512 -4 60 -1 81 22 145 32 87 132 290 200 405 77 131 121
249 155 420 18 89 21 91 62 38 20 -27 42 -60 49 -75 13 -31 33 -38 25 -10 -2
9 -7 43 -11 76 -4 32 -13 76 -21 98 -19 55 -19 54 29 71 59 21 74 20 110 -7z
m2526 8 c41 -12 51 -19 47 -32 -36 -123 -54 -232 -39 -232 4 0 21 25 38 56 16
30 40 64 52 75 24 24 26 21 38 -56 10 -60 64 -244 86 -294 10 -24 51 -99 90
-167 82 -145 158 -302 189 -397 18 -53 21 -80 17 -125 -13 -121 -112 -368
-191 -474 -30 -39 -346 -332 -352 -325 -1 1 15 72 37 157 22 85 51 223 65 305
30 173 21 160 172 252 50 30 92 59 92 63 0 15 -83 41 -147 47 l-65 6 6 51 c10
80 25 248 26 277 0 25 -3 26 -102 43 -57 9 -118 20 -135 23 -31 5 -33 8 -33
47 0 50 27 212 45 273 7 24 12 43 10 43 -2 0 -18 -21 -37 -47 -42 -59 -79
-137 -108 -227 l-22 -68 -37 5 c-20 4 -103 13 -186 22 -82 9 -153 19 -158 22
-5 3 -7 42 -5 87 5 88 35 170 83 228 l26 31 -68 62 c-49 46 -64 65 -53 69 8 3
67 19 130 36 147 39 303 101 366 145 58 40 55 39 123 19z m-1314 -19 c17 0 55
4 85 7 l55 7 -45 -21 c-27 -13 -64 -22 -95 -22 -31 0 -68 9 -95 22 l-45 21 55
-7 c30 -3 69 -7 85 -7z m-574 -238 c52 -35 95 -106 108 -180 12 -71 14 -158 5
-206 l-6 -31 -73 0 -72 0 -6 75 c-6 80 -35 157 -83 220 l-26 35 53 53 c30 30
57 54 60 55 3 1 21 -8 40 -21z m1297 -84 c3 -1 -10 -20 -27 -42 -50 -63 -74
-127 -79 -213 l-5 -78 -73 0 -73 0 -7 36 c-4 20 -4 77 -2 128 7 130 44 209
123 257 l30 19 55 -53 c30 -28 56 -53 58 -54z m-965 -137 c85 -113 75 -112
167 -19 l79 80 27 -39 c15 -21 49 -57 76 -80 56 -47 52 -49 129 52 29 39 57
70 61 70 4 0 8 -13 8 -29 0 -32 35 -151 56 -193 l15 -28 -376 0 c-206 0 -375
2 -375 4 0 2 11 28 25 57 13 30 30 84 37 122 7 37 15 67 18 67 3 0 27 -29 53
-64z m-633 -396 c387 -18 799 -39 955 -50 495 -35 733 -60 821 -85 42 -12 54
-21 64 -46 19 -44 7 -241 -29 -484 -16 -110 -32 -230 -36 -267 -7 -68 -7 -68
-44 -77 -209 -55 -1136 -130 -1606 -131 -164 0 -193 -15 -49 -23 477 -30 1363
-34 1624 -8 57 6 108 7 112 3 4 -4 10 -21 14 -38 10 -50 -31 -89 -124 -118
-191 -60 -809 -102 -1378 -93 -267 3 -338 8 -436 25 -222 40 -260 76 -208 194
l19 44 -24 105 c-13 57 -38 165 -55 239 -49 212 -132 781 -117 797 11 11 175
31 222 27 28 -2 151 -9 275 -14z"/>
<path d="M7976 6150 c-44 -8 -106 -66 -106 -99 0 -10 13 -33 29 -50 26 -28 34
-31 88 -30 l58 1 -46 12 c-58 14 -99 41 -99 65 0 25 55 71 84 71 19 0 21 -4
18 -39 -3 -32 1 -42 23 -60 42 -32 99 -29 136 8 16 16 29 39 29 50 0 30 14 26
45 -11 15 -18 24 -25 21 -15 -3 10 -6 22 -6 26 0 18 -43 51 -78 60 -56 14
-152 19 -196 11z m149 -39 c3 -5 1 -13 -5 -16 -15 -9 -43 3 -35 15 8 13 32 13
40 1z"/>
<path d="M8178 5983 c6 -2 18 -2 25 0 6 3 1 5 -13 5 -14 0 -19 -2 -12 -5z"/>
<path d="M8765 6154 c-99 -12 -136 -26 -156 -57 -28 -46 -23 -64 7 -28 30 36
44 39 44 12 0 -33 11 -51 41 -66 77 -40 167 12 144 84 -5 17 -2 21 19 21 27 0
86 -44 86 -64 0 -23 -51 -61 -98 -72 l-47 -12 56 -1 c53 -1 59 1 88 34 17 20
31 40 31 46 0 19 -41 69 -68 83 -31 15 -102 25 -147 20z m-7 -52 c2 -7 -6 -12
-17 -12 -21 0 -27 11 -14 24 9 9 26 2 31 -12z"/>
<path d="M8648 5983 c6 -2 18 -2 25 0 6 3 1 5 -13 5 -14 0 -19 -2 -12 -5z"/>
<path d="M8240 5690 c-16 -40 0 -80 31 -80 21 0 22 1 4 20 -13 14 -16 29 -12
55 7 43 -6 46 -23 5z"/>
<path d="M8586 5691 c4 -21 1 -39 -11 -57 -16 -25 -16 -26 7 -22 19 2 23 10
26 44 2 27 -2 45 -12 54 -14 11 -15 9 -10 -19z"/>
<path d="M8352 5591 c13 -16 35 -35 50 -41 31 -14 50 -6 91 39 36 39 13 43
-31 6 -17 -14 -35 -25 -42 -25 -7 0 -23 11 -36 25 -13 14 -30 25 -39 25 -14 0
-12 -5 7 -29z"/>
<path d="M8080 5446 c0 -8 8 -20 18 -25 9 -5 35 -36 56 -69 48 -75 105 -117
187 -138 148 -38 276 16 366 154 18 28 37 52 42 52 9 0 24 30 18 37 -2 2 -20
-3 -40 -12 -113 -47 -511 -41 -629 10 -13 5 -18 3 -18 -9z m345 -59 c116 1
220 4 233 7 12 2 22 3 22 0 0 -15 -55 -84 -64 -80 -6 3 -42 15 -79 27 -96 30
-185 23 -299 -25 -13 -6 -23 2 -42 33 -32 50 -32 54 -3 45 12 -4 117 -7 232
-7z m115 -67 c19 -6 42 -14 50 -20 13 -8 12 -11 -5 -24 -57 -42 -239 -49 -303
-11 -18 11 -31 24 -29 30 2 5 32 18 68 27 66 18 150 17 219 -2z"/>
<path d="M1740 4468 c-6 -24 -15 -58 -20 -75 l-8 -33 49 0 c43 0 50 2 45 18
-3 9 -12 43 -21 75 -9 31 -20 57 -25 57 -5 0 -14 -19 -20 -42z"/>
<path d="M2420 4395 l0 -105 43 0 c64 0 81 23 81 109 1 86 -10 101 -75 101
l-49 0 0 -105z"/>
<path d="M3741 4484 c-16 -21 -21 -41 -21 -91 0 -55 4 -67 25 -88 29 -30 64
-32 96 -6 21 17 24 27 24 94 0 60 -4 79 -19 96 -28 31 -79 28 -105 -5z"/>
<path d="M4037 4503 c-4 -3 -7 -33 -7 -65 l0 -58 41 0 c63 0 79 13 79 65 0 34
-5 47 -19 55 -22 11 -84 14 -94 3z"/>
<path d="M4570 4449 l0 -62 45 5 c55 7 75 22 75 58 0 38 -29 60 -78 60 l-42 0
0 -61z"/>
<path d="M879 4064 c-19 -23 -23 -142 -7 -174 11 -20 22 -26 56 -28 24 -2 50
2 57 8 31 26 30 164 -2 195 -20 20 -87 19 -104 -1z"/>
<path d="M1468 2260 c-2 -6 -2 -31 0 -55 4 -39 7 -45 27 -45 50 0 73 60 37 93
-21 19 -58 23 -64 7z"/>
<path d="M1647 2223 c-14 -13 -6 -23 19 -23 22 0 25 2 14 15 -14 16 -23 19
-33 8z"/>
<path d="M1330 2215 c-11 -13 -9 -15 15 -15 16 0 25 5 23 12 -7 19 -24 20 -38
3z"/>
<path d="M2045 2199 c-10 -30 18 -58 43 -43 9 6 17 22 17 35 0 34 -50 41 -60
8z"/>
<path d="M1770 1995 c0 -8 7 -15 15 -15 8 0 15 7 15 15 0 8 -7 15 -15 15 -8 0
-15 -7 -15 -15z"/>
<path d="M2060 1995 c0 -8 7 -15 15 -15 8 0 15 7 15 15 0 8 -7 15 -15 15 -8 0
-15 -7 -15 -15z"/>
<path d="M2130 1996 c0 -9 7 -16 16 -16 17 0 14 22 -4 28 -7 2 -12 -3 -12 -12z"/>
<path d="M1448 2003 c7 -3 16 -2 19 1 4 3 -2 6 -13 5 -11 0 -14 -3 -6 -6z"/>
<path d="M1638 1983 c7 -3 16 -2 19 1 4 3 -2 6 -13 5 -11 0 -14 -3 -6 -6z"/>
<path d="M1935 1104 c-11 -12 -15 -30 -13 -62 3 -51 21 -68 61 -58 25 6 27 10
27 61 0 43 -4 56 -19 65 -27 14 -37 13 -56 -6z"/>
<path d="M2100 1081 c0 -35 10 -44 44 -35 51 12 43 64 -10 64 -31 0 -34 -3
-34 -29z"/>
<path d="M2878 1109 c-13 -7 -18 -23 -18 -57 0 -52 12 -72 45 -72 32 0 45 20
45 66 0 61 -30 88 -72 63z"/>
</g>
</svg>
